<mxfile host="app.diagrams.net" modified="2021-05-17T13:45:42.180Z" agent="5.0 (Macintosh; Intel Mac OS X 10_15_7) AppleWebKit/537.36 (KHTML, like Gecko) Chrome/90.0.4430.212 Safari/537.36" etag="Tw0fIYPpncLXO6chJP1y" version="14.6.13" type="github" pages="2">
  <diagram id="UqUusKgm8iAnQG0JLbv5" name="ページ1">
    <mxGraphModel dx="1892" dy="1228" grid="1" gridSize="10" guides="1" tooltips="1" connect="1" arrows="1" fold="1" page="1" pageScale="1" pageWidth="827" pageHeight="1169" math="0" shadow="0">
      <root>
        <mxCell id="0" />
        <mxCell id="1" parent="0" />
        <mxCell id="5WtFErjTmKMNUHjkhOSs-26" style="edgeStyle=orthogonalEdgeStyle;rounded=0;orthogonalLoop=1;jettySize=auto;html=1;exitX=0.5;exitY=1;exitDx=0;exitDy=0;fontColor=#000000;" edge="1" parent="1" source="bjA6AHIqGVcabFiZ19q3-1">
          <mxGeometry relative="1" as="geometry">
            <mxPoint x="260" y="379.9999999999999" as="targetPoint" />
          </mxGeometry>
        </mxCell>
        <mxCell id="bjA6AHIqGVcabFiZ19q3-1" value="&lt;p class=&quot;p1&quot; style=&quot;margin: 0px ; font-stretch: normal ; line-height: normal ; font-size: 11px&quot;&gt;&lt;span&gt;i=&lt;/span&gt;&lt;span class=&quot;s1&quot; style=&quot;&quot;&gt;0&lt;/span&gt;&lt;span&gt;; i&amp;lt;number; i++&lt;/span&gt;&lt;/p&gt;" style="shape=trapezoid;perimeter=trapezoidPerimeter;whiteSpace=wrap;html=1;fixedSize=1;" vertex="1" parent="1">
          <mxGeometry x="200" y="300" width="120" height="40" as="geometry" />
        </mxCell>
        <mxCell id="5WtFErjTmKMNUHjkhOSs-32" style="edgeStyle=orthogonalEdgeStyle;rounded=0;orthogonalLoop=1;jettySize=auto;html=1;exitX=0.5;exitY=0;exitDx=0;exitDy=0;entryX=0.5;entryY=0;entryDx=0;entryDy=0;fontColor=#000000;" edge="1" parent="1" source="bjA6AHIqGVcabFiZ19q3-2" target="bjA6AHIqGVcabFiZ19q3-7">
          <mxGeometry relative="1" as="geometry" />
        </mxCell>
        <mxCell id="bjA6AHIqGVcabFiZ19q3-2" value="" style="shape=trapezoid;perimeter=trapezoidPerimeter;whiteSpace=wrap;html=1;fixedSize=1;rotation=-180;" vertex="1" parent="1">
          <mxGeometry x="200" y="420" width="120" height="40" as="geometry" />
        </mxCell>
        <mxCell id="5WtFErjTmKMNUHjkhOSs-10" style="edgeStyle=orthogonalEdgeStyle;rounded=0;orthogonalLoop=1;jettySize=auto;html=1;exitX=0.5;exitY=1;exitDx=0;exitDy=0;entryX=0.5;entryY=0;entryDx=0;entryDy=0;" edge="1" parent="1" source="bjA6AHIqGVcabFiZ19q3-6">
          <mxGeometry relative="1" as="geometry">
            <mxPoint x="260" y="200" as="targetPoint" />
          </mxGeometry>
        </mxCell>
        <mxCell id="bjA6AHIqGVcabFiZ19q3-6" value="開始" style="ellipse;whiteSpace=wrap;html=1;" vertex="1" parent="1">
          <mxGeometry x="200" y="120" width="120" height="40" as="geometry" />
        </mxCell>
        <mxCell id="5WtFErjTmKMNUHjkhOSs-13" style="edgeStyle=orthogonalEdgeStyle;rounded=0;orthogonalLoop=1;jettySize=auto;html=1;exitX=1;exitY=0.5;exitDx=0;exitDy=0;entryX=0.5;entryY=0;entryDx=0;entryDy=0;" edge="1" parent="1" source="bjA6AHIqGVcabFiZ19q3-7" target="5WtFErjTmKMNUHjkhOSs-1">
          <mxGeometry relative="1" as="geometry">
            <mxPoint x="430" y="539.7586206896552" as="targetPoint" />
          </mxGeometry>
        </mxCell>
        <mxCell id="5WtFErjTmKMNUHjkhOSs-18" style="edgeStyle=orthogonalEdgeStyle;rounded=0;orthogonalLoop=1;jettySize=auto;html=1;exitX=0.5;exitY=1;exitDx=0;exitDy=0;entryX=0.5;entryY=0;entryDx=0;entryDy=0;" edge="1" parent="1" source="bjA6AHIqGVcabFiZ19q3-7" target="5WtFErjTmKMNUHjkhOSs-15">
          <mxGeometry relative="1" as="geometry" />
        </mxCell>
        <mxCell id="bjA6AHIqGVcabFiZ19q3-7" value="&lt;p class=&quot;p1&quot; style=&quot;margin: 0px ; font-stretch: normal ; line-height: normal ; font-size: 3px&quot;&gt;sum&amp;gt;=number*&lt;span class=&quot;s1&quot; style=&quot;font-size: 3px;&quot;&gt;100&lt;/span&gt;*&lt;span class=&quot;s2&quot; style=&quot;font-size: 3px;&quot;&gt;0.8&lt;/span&gt;&lt;/p&gt;" style="rhombus;whiteSpace=wrap;html=1;" vertex="1" parent="1">
          <mxGeometry x="200" y="520" width="120" height="40" as="geometry" />
        </mxCell>
        <mxCell id="5WtFErjTmKMNUHjkhOSs-14" style="edgeStyle=orthogonalEdgeStyle;rounded=0;orthogonalLoop=1;jettySize=auto;html=1;exitX=1;exitY=0.5;exitDx=0;exitDy=0;entryX=0.5;entryY=0;entryDx=0;entryDy=0;" edge="1" parent="1" source="5WtFErjTmKMNUHjkhOSs-1" target="5WtFErjTmKMNUHjkhOSs-2">
          <mxGeometry relative="1" as="geometry">
            <mxPoint x="560" y="619.7586206896552" as="targetPoint" />
          </mxGeometry>
        </mxCell>
        <mxCell id="5WtFErjTmKMNUHjkhOSs-19" style="edgeStyle=orthogonalEdgeStyle;rounded=0;orthogonalLoop=1;jettySize=auto;html=1;exitX=0.5;exitY=1;exitDx=0;exitDy=0;entryX=0.5;entryY=0;entryDx=0;entryDy=0;" edge="1" parent="1" source="5WtFErjTmKMNUHjkhOSs-1" target="5WtFErjTmKMNUHjkhOSs-16">
          <mxGeometry relative="1" as="geometry" />
        </mxCell>
        <mxCell id="5WtFErjTmKMNUHjkhOSs-1" value="&lt;p class=&quot;p1&quot; style=&quot;margin: 0px ; font-stretch: normal ; line-height: normal ; font-size: 3px&quot;&gt;sum&amp;gt;=number*&lt;span class=&quot;s1&quot; style=&quot;font-size: 3px;&quot;&gt;100&lt;/span&gt;*&lt;span class=&quot;s2&quot; style=&quot;font-size: 3px;&quot;&gt;0.6&lt;/span&gt;&lt;/p&gt;" style="rhombus;whiteSpace=wrap;html=1;" vertex="1" parent="1">
          <mxGeometry x="330" y="600" width="120" height="40" as="geometry" />
        </mxCell>
        <mxCell id="5WtFErjTmKMNUHjkhOSs-20" style="edgeStyle=orthogonalEdgeStyle;rounded=0;orthogonalLoop=1;jettySize=auto;html=1;exitX=0.5;exitY=1;exitDx=0;exitDy=0;entryX=0.5;entryY=0;entryDx=0;entryDy=0;" edge="1" parent="1" source="5WtFErjTmKMNUHjkhOSs-2" target="5WtFErjTmKMNUHjkhOSs-17">
          <mxGeometry relative="1" as="geometry" />
        </mxCell>
        <mxCell id="5WtFErjTmKMNUHjkhOSs-22" style="edgeStyle=orthogonalEdgeStyle;rounded=0;orthogonalLoop=1;jettySize=auto;html=1;exitX=1;exitY=0.5;exitDx=0;exitDy=0;" edge="1" parent="1" source="5WtFErjTmKMNUHjkhOSs-2">
          <mxGeometry relative="1" as="geometry">
            <mxPoint x="650" y="760" as="targetPoint" />
          </mxGeometry>
        </mxCell>
        <mxCell id="5WtFErjTmKMNUHjkhOSs-2" value="&lt;p class=&quot;p1&quot; style=&quot;margin: 0px ; font-stretch: normal ; line-height: normal ; font-size: 3px&quot;&gt;sum&amp;gt;=number*&lt;span class=&quot;s1&quot; style=&quot;font-size: 3px;&quot;&gt;100&lt;/span&gt;*&lt;span class=&quot;s2&quot; style=&quot;font-size: 3px;&quot;&gt;0.4&lt;/span&gt;&lt;/p&gt;" style="rhombus;whiteSpace=wrap;html=1;" vertex="1" parent="1">
          <mxGeometry x="460" y="680" width="120" height="40" as="geometry" />
        </mxCell>
        <mxCell id="5WtFErjTmKMNUHjkhOSs-3" value="&lt;span style=&quot;color: rgba(0 , 0 , 0 , 0) ; font-family: monospace ; font-size: 0px&quot;&gt;%3CmxGraphModel%3E%3Croot%3E%3CmxCell%20id%3D%220%22%2F%3E%3CmxCell%20id%3D%221%22%20parent%3D%220%22%2F%3E%3CmxCell%20id%3D%222%22%20value%3D%22%E9%96%8B%E5%A7%8B%22%20style%3D%22ellipse%3BwhiteSpace%3Dwrap%3Bhtml%3D1%3B%22%20vertex%3D%221%22%20parent%3D%221%22%3E%3CmxGeometry%20x%3D%22320%22%20y%3D%22120%22%20width%3D%22120%22%20height%3D%2240%22%20as%3D%22geometry%22%2F%3E%3C%2FmxCell%3E%3C%2Froot%3E%3C%2FmxGraphModel%3E&lt;/span&gt;" style="text;html=1;align=center;verticalAlign=middle;resizable=0;points=[];autosize=1;strokeColor=none;" vertex="1" parent="1">
          <mxGeometry x="380" y="1060" width="20" height="20" as="geometry" />
        </mxCell>
        <mxCell id="5WtFErjTmKMNUHjkhOSs-4" value="終了" style="ellipse;whiteSpace=wrap;html=1;" vertex="1" parent="1">
          <mxGeometry x="200" y="880" width="120" height="40" as="geometry" />
        </mxCell>
        <mxCell id="5WtFErjTmKMNUHjkhOSs-25" style="edgeStyle=orthogonalEdgeStyle;rounded=0;orthogonalLoop=1;jettySize=auto;html=1;exitX=0.5;exitY=1;exitDx=0;exitDy=0;entryX=0.5;entryY=0;entryDx=0;entryDy=0;fontColor=#000000;" edge="1" parent="1" source="5WtFErjTmKMNUHjkhOSs-9" target="bjA6AHIqGVcabFiZ19q3-1">
          <mxGeometry relative="1" as="geometry" />
        </mxCell>
        <mxCell id="5WtFErjTmKMNUHjkhOSs-9" value="sum = 0;" style="rounded=0;whiteSpace=wrap;html=1;" vertex="1" parent="1">
          <mxGeometry x="200" y="200" width="120" height="40" as="geometry" />
        </mxCell>
        <mxCell id="5WtFErjTmKMNUHjkhOSs-31" style="edgeStyle=orthogonalEdgeStyle;rounded=0;orthogonalLoop=1;jettySize=auto;html=1;exitX=0.5;exitY=1;exitDx=0;exitDy=0;fontColor=#000000;entryX=0.5;entryY=1;entryDx=0;entryDy=0;" edge="1" parent="1" source="5WtFErjTmKMNUHjkhOSs-12" target="bjA6AHIqGVcabFiZ19q3-2">
          <mxGeometry relative="1" as="geometry">
            <mxPoint x="260.3333333333335" y="449.9999999999999" as="targetPoint" />
          </mxGeometry>
        </mxCell>
        <mxCell id="5WtFErjTmKMNUHjkhOSs-12" value="sum += point[i];" style="rounded=0;whiteSpace=wrap;html=1;" vertex="1" parent="1">
          <mxGeometry x="200" y="360" width="120" height="40" as="geometry" />
        </mxCell>
        <mxCell id="5WtFErjTmKMNUHjkhOSs-33" style="edgeStyle=orthogonalEdgeStyle;rounded=0;orthogonalLoop=1;jettySize=auto;html=1;exitX=0.5;exitY=1;exitDx=0;exitDy=0;fontColor=#000000;entryX=0.5;entryY=0;entryDx=0;entryDy=0;" edge="1" parent="1" source="5WtFErjTmKMNUHjkhOSs-15" target="5WtFErjTmKMNUHjkhOSs-4">
          <mxGeometry relative="1" as="geometry">
            <mxPoint x="259.72413793103453" y="800" as="targetPoint" />
          </mxGeometry>
        </mxCell>
        <mxCell id="5WtFErjTmKMNUHjkhOSs-15" value="&lt;p class=&quot;p1&quot; style=&quot;margin: 0px; font-stretch: normal; font-size: 14px; line-height: normal;&quot;&gt;return &lt;span class=&quot;s1&quot; style=&quot;&quot;&gt;&quot;&lt;/span&gt;&lt;span class=&quot;s2&quot; style=&quot;&quot;&gt;A&lt;/span&gt;&lt;span class=&quot;s1&quot; style=&quot;&quot;&gt;&quot;&lt;/span&gt;&lt;span class=&quot;s3&quot; style=&quot;&quot;&gt;;&lt;/span&gt;&lt;/p&gt;" style="rounded=0;whiteSpace=wrap;html=1;" vertex="1" parent="1">
          <mxGeometry x="200" y="600" width="120" height="40" as="geometry" />
        </mxCell>
        <mxCell id="5WtFErjTmKMNUHjkhOSs-38" style="edgeStyle=orthogonalEdgeStyle;rounded=0;orthogonalLoop=1;jettySize=auto;html=1;exitX=0.5;exitY=1;exitDx=0;exitDy=0;fontColor=#000000;" edge="1" parent="1" source="5WtFErjTmKMNUHjkhOSs-16">
          <mxGeometry relative="1" as="geometry">
            <mxPoint x="260" y="880" as="targetPoint" />
            <Array as="points">
              <mxPoint x="390" y="840" />
              <mxPoint x="260" y="840" />
            </Array>
          </mxGeometry>
        </mxCell>
        <mxCell id="5WtFErjTmKMNUHjkhOSs-16" value="&lt;p class=&quot;p1&quot; style=&quot;margin: 0px; font-stretch: normal; font-size: 14px; line-height: normal;&quot;&gt;return &lt;span class=&quot;s1&quot; style=&quot;&quot;&gt;&quot;&lt;/span&gt;&lt;span class=&quot;s2&quot; style=&quot;&quot;&gt;B&lt;/span&gt;&lt;span class=&quot;s1&quot; style=&quot;&quot;&gt;&quot;&lt;/span&gt;&lt;span class=&quot;s3&quot; style=&quot;&quot;&gt;;&lt;/span&gt;&lt;/p&gt;" style="rounded=0;whiteSpace=wrap;html=1;" vertex="1" parent="1">
          <mxGeometry x="330" y="680" width="120" height="40" as="geometry" />
        </mxCell>
        <mxCell id="5WtFErjTmKMNUHjkhOSs-36" style="edgeStyle=orthogonalEdgeStyle;rounded=0;orthogonalLoop=1;jettySize=auto;html=1;exitX=0.5;exitY=1;exitDx=0;exitDy=0;entryX=0.5;entryY=0;entryDx=0;entryDy=0;fontColor=#000000;" edge="1" parent="1" source="5WtFErjTmKMNUHjkhOSs-17" target="5WtFErjTmKMNUHjkhOSs-4">
          <mxGeometry relative="1" as="geometry" />
        </mxCell>
        <mxCell id="5WtFErjTmKMNUHjkhOSs-17" value="&lt;p class=&quot;p1&quot; style=&quot;margin: 0px; font-stretch: normal; font-size: 14px; line-height: normal;&quot;&gt;return &lt;span class=&quot;s1&quot; style=&quot;&quot;&gt;&quot;&lt;/span&gt;&lt;span class=&quot;s2&quot; style=&quot;&quot;&gt;C&lt;/span&gt;&lt;span class=&quot;s1&quot; style=&quot;&quot;&gt;&quot;&lt;/span&gt;&lt;span class=&quot;s3&quot; style=&quot;&quot;&gt;;&lt;/span&gt;&lt;/p&gt;" style="rounded=0;whiteSpace=wrap;html=1;" vertex="1" parent="1">
          <mxGeometry x="460" y="760" width="120" height="40" as="geometry" />
        </mxCell>
        <mxCell id="5WtFErjTmKMNUHjkhOSs-37" style="edgeStyle=orthogonalEdgeStyle;rounded=0;orthogonalLoop=1;jettySize=auto;html=1;exitX=0.5;exitY=1;exitDx=0;exitDy=0;fontColor=#000000;" edge="1" parent="1" source="5WtFErjTmKMNUHjkhOSs-23" target="5WtFErjTmKMNUHjkhOSs-4">
          <mxGeometry relative="1" as="geometry" />
        </mxCell>
        <mxCell id="5WtFErjTmKMNUHjkhOSs-23" value="&lt;p class=&quot;p1&quot; style=&quot;margin: 0px; font-stretch: normal; font-size: 14px; line-height: normal;&quot;&gt;return &lt;span class=&quot;s1&quot; style=&quot;&quot;&gt;&quot;&lt;/span&gt;&lt;span class=&quot;s2&quot; style=&quot;&quot;&gt;D&lt;/span&gt;&lt;span class=&quot;s1&quot; style=&quot;&quot;&gt;&quot;&lt;/span&gt;&lt;span class=&quot;s3&quot; style=&quot;&quot;&gt;;&lt;/span&gt;&lt;/p&gt;" style="rounded=0;whiteSpace=wrap;html=1;" vertex="1" parent="1">
          <mxGeometry x="590" y="760" width="120" height="40" as="geometry" />
        </mxCell>
      </root>
    </mxGraphModel>
  </diagram>
  <diagram id="cm1TxLjQ1rfXs8G6oVf6" name="Page-2">
    <mxGraphModel dx="946" dy="614" grid="1" gridSize="10" guides="1" tooltips="1" connect="1" arrows="1" fold="1" page="1" pageScale="1" pageWidth="827" pageHeight="1169" math="0" shadow="0">
      <root>
        <mxCell id="g9rFj8kL3yS7_H_EAxLr-0" />
        <mxCell id="g9rFj8kL3yS7_H_EAxLr-1" parent="g9rFj8kL3yS7_H_EAxLr-0" />
      </root>
    </mxGraphModel>
  </diagram>
</mxfile>
